<svg width="24" height="24" viewBox="0 0 24 24" fill="none" xmlns="http://www.w3.org/2000/svg">
<rect width="24" height="24" rx="5" fill="#D5906E" fill-opacity="0.3"/>
<path d="M11.9306 10.0952V7.80952H9.55142V6.28571H11.9306V4H13.5167V6.28571H15.8959V7.80952H13.5167V10.0952H11.9306ZM8.75836 20C8.32218 20 7.94891 19.8509 7.63856 19.5528C7.32768 19.2541 7.17224 18.8952 7.17224 18.4762C7.17224 18.0571 7.32768 17.6983 7.63856 17.3996C7.94891 17.1015 8.32218 16.9524 8.75836 16.9524C9.19455 16.9524 9.56781 17.1015 9.87817 17.3996C10.189 17.6983 10.3445 18.0571 10.3445 18.4762C10.3445 18.8952 10.189 19.2541 9.87817 19.5528C9.56781 19.8509 9.19455 20 8.75836 20ZM16.689 20C16.2528 20 15.8795 19.8509 15.5692 19.5528C15.2583 19.2541 15.1028 18.8952 15.1028 18.4762C15.1028 18.0571 15.2583 17.6983 15.5692 17.3996C15.8795 17.1015 16.2528 16.9524 16.689 16.9524C17.1252 16.9524 17.4987 17.1015 17.8096 17.3996C18.1199 17.6983 18.2751 18.0571 18.2751 18.4762C18.2751 18.8952 18.1199 19.2541 17.8096 19.5528C17.4987 19.8509 17.1252 20 16.689 20ZM8.75836 16.1905C8.16357 16.1905 7.70756 15.9396 7.39033 15.4377C7.07311 14.9364 7.0665 14.4381 7.37051 13.9429L8.44114 12.0762L5.58612 6.28571H4V4.7619H6.59727L9.96778 11.619H15.539L18.6121 6.28571L20 7.00952L16.9269 12.3429C16.7815 12.5968 16.5898 12.7937 16.3519 12.9333C16.114 13.073 15.843 13.1429 15.539 13.1429H9.63073L8.75836 14.6667H18.2751V16.1905H8.75836Z" fill="#402101"/>
</svg>
